<svg xmlns="http://www.w3.org/2000/svg" viewBox="0 0 1088 710"><title>FundVibration</title><line x1="45.74" y1="543.93" x2="1073.41" y2="543.93" fill="none" stroke="#b8d6ed" stroke-miterlimit="10" stroke-width="3.2"/><line x1="45.74" y1="450.8" x2="1073.41" y2="450.8" fill="none" stroke="#b8d6ed" stroke-miterlimit="10" stroke-width="3.2"/><line x1="45.74" y1="357.66" x2="1073.41" y2="357.66" fill="none" stroke="#b8d6ed" stroke-miterlimit="10" stroke-width="3.2"/><line x1="45.74" y1="264.53" x2="1073.41" y2="264.53" fill="none" stroke="#b8d6ed" stroke-miterlimit="10" stroke-width="3.2"/><line x1="45.74" y1="171.4" x2="1073.41" y2="171.4" fill="none" stroke="#b8d6ed" stroke-miterlimit="10" stroke-width="3.2"/><line x1="45.74" y1="78.26" x2="1073.41" y2="78.26" fill="none" stroke="#b8d6ed" stroke-miterlimit="10" stroke-width="3.2"/><polyline points="45.74 73.81 45.74 634.65 1073.41 634.65" fill="none" stroke="#475156" stroke-miterlimit="10" stroke-width="3.2"/><line x1="123.72" y1="109.06" x2="123.72" y2="172.62" fill="none" stroke="#475156" stroke-miterlimit="10" stroke-width="2.14"/><line x1="432.24" y1="109.06" x2="432.24" y2="172.62" fill="none" stroke="#475156" stroke-miterlimit="10" stroke-width="2.14"/><text transform="translate(1000.55 399.34)" font-size="23.6" fill="#475156" font-family="ArialMT, Arial"><tspan letter-spacing="-0.04em">T</tspan><tspan x="13.54" y="0">ime</tspan></text><text transform="translate(30.56 391.86) rotate(-90)" font-size="23.6" fill="#475156" font-family="Arial-BoldMT, Arial" font-weight="700">G level</text><text transform="translate(72.25 609.79)" font-size="23.6" fill="#475156" font-family="Arial-ItalicMT, Arial" font-style="italic">Frequency <tspan x="118.05" y="0" letter-spacing="0.12em">f</tspan><tspan x="127.43" y="0" letter-spacing="0em">=1/T</tspan></text><text transform="translate(229.26 118.39)" font-size="23.6" fill="#475156" font-family="ArialMT, Arial">Period<tspan x="68.21" y="0" xml:space="preserve" letter-spacing="-0.02em"> T</tspan></text><line x1="421.72" y1="134.7" x2="134.46" y2="134.7" fill="none" stroke="#475156" stroke-miterlimit="10" stroke-width="2.14"/><polygon points="419.54 127.24 432.45 134.7 419.54 142.16 419.54 127.24" fill="#475156"/><polygon points="136.64 127.24 123.72 134.7 136.64 142.16 136.64 127.24" fill="#475156"/><path d="M968.84,356.55c-19.22,93-38.38,186.23-76.82,186.23-76.63,0-76.63-370.69-153.26-370.69S662.13,542.78,585.5,542.78,508.87,172.09,432.24,172.09,355.61,542.78,279,542.78,202.35,172.09,125.72,172.09c-38.32,0-57.48,92.67-76.64,185.34" fill="none" stroke="#278dba" stroke-miterlimit="10" stroke-width="8.55"/></svg>